# xmcd
#
# Track frame offsets:
#	150
#	17895
#	32224
#	46029
#	63080
#	84986
#	97981
#	115740
#	130246
#	151456
#	169083
#	190287
#	206987
#	225787
#	244465
#
# Disc length: 3483 seconds
#
# Revision: 2
# Processed by: cddbd v1.5.2PL0 Copyright (c) Steve Scherf et al.
# Submitted via: EZCDAudioConverter 7.1.0.1
#
DISCID=bd0d990f
DTITLE=周杰伦 - The Era 2010 World Tour 超时代演唱会 CD1
DYEAR=2010
DGENRE=Pop
TTITLE0=周杰伦 - 龙战骑士
TTITLE1=周杰伦 - 跨时代
TTITLE2=周杰伦 - 蛇舞(with 梁心颐 Lara)
TTITLE3=周杰伦 - 爱在西元前
TTITLE4=周杰伦 - 我不配
TTITLE5=周杰伦 - 嘻哈空姐
TTITLE6=周杰伦 - 威廉古堡
TTITLE7=周杰伦 - 魔术先生
TTITLE8=周杰伦 - 黑色幽默(with 袁咏琳)
TTITLE9=浪花兄弟 - 想你就写信
TTITLE10=周杰伦 - 你是我的OK绷(with 浪花兄弟)
TTITLE11=周杰伦 - 稻香
TTITLE12=周杰伦 - 阳光宅男
TTITLE13=周杰伦 - 龙卷风
TTITLE14=周杰伦 - 说好的幸福呢＋淘汰＋青花瓷
EXTD=
EXTT0=
EXTT1=
EXTT2=
EXTT3=
EXTT4=
EXTT5=
EXTT6=
EXTT7=
EXTT8=
EXTT9=
EXTT10=
EXTT11=
EXTT12=
EXTT13=
EXTT14=
PLAYORDER=
